<?xml version="1.0" encoding="UTF-8"?>
<svg xmlns="http://www.w3.org/2000/svg" xmlns:xlink="http://www.w3.org/1999/xlink"
     width="3946" height="1400" viewBox="0 -1400 3946 1400">
<defs>
</defs>
<path d="M210,-20 L210,-1320" stroke="grey" stroke-width="1" fill="none" />
<text x="160" y="-1330" font-size="22" fill="grey" dy="0em">1000</text>
<path d="M410,-20 L410,-1320" stroke="grey" stroke-width="1" fill="none" />
<text x="360" y="-1330" font-size="22" fill="grey" dy="0em">2000</text>
<path d="M610,-20 L610,-1320" stroke="grey" stroke-width="1" fill="none" />
<text x="560" y="-1330" font-size="22" fill="grey" dy="0em">3000</text>
<path d="M810,-20 L810,-1320" stroke="grey" stroke-width="1" fill="none" />
<text x="760" y="-1330" font-size="22" fill="grey" dy="0em">4000</text>
<path d="M1010,-20 L1010,-1320" stroke="grey" stroke-width="1" fill="none" />
<text x="960" y="-1330" font-size="22" fill="grey" dy="0em">5000</text>
<path d="M1210,-20 L1210,-1320" stroke="grey" stroke-width="1" fill="none" />
<text x="1160" y="-1330" font-size="22" fill="grey" dy="0em">6000</text>
<path d="M1410,-20 L1410,-1320" stroke="grey" stroke-width="1" fill="none" />
<text x="1360" y="-1330" font-size="22" fill="grey" dy="0em">7000</text>
<path d="M1610,-20 L1610,-1320" stroke="grey" stroke-width="1" fill="none" />
<text x="1560" y="-1330" font-size="22" fill="grey" dy="0em">8000</text>
<path d="M1810,-20 L1810,-1320" stroke="grey" stroke-width="1" fill="none" />
<text x="1760" y="-1330" font-size="22" fill="grey" dy="0em">9000</text>
<path d="M2010,-20 L2010,-1320" stroke="grey" stroke-width="1" fill="none" />
<text x="1960" y="-1330" font-size="22" fill="grey" dy="0em">10000</text>
<path d="M2210,-20 L2210,-1320" stroke="grey" stroke-width="1" fill="none" />
<text x="2160" y="-1330" font-size="22" fill="grey" dy="0em">11000</text>
<path d="M2410,-20 L2410,-1320" stroke="grey" stroke-width="1" fill="none" />
<text x="2360" y="-1330" font-size="22" fill="grey" dy="0em">12000</text>
<path d="M2610,-20 L2610,-1320" stroke="grey" stroke-width="1" fill="none" />
<text x="2560" y="-1330" font-size="22" fill="grey" dy="0em">13000</text>
<path d="M2810,-20 L2810,-1320" stroke="grey" stroke-width="1" fill="none" />
<text x="2760" y="-1330" font-size="22" fill="grey" dy="0em">14000</text>
<path d="M3010,-20 L3010,-1320" stroke="grey" stroke-width="1" fill="none" />
<text x="2960" y="-1330" font-size="22" fill="grey" dy="0em">15000</text>
<path d="M3210,-20 L3210,-1320" stroke="grey" stroke-width="1" fill="none" />
<text x="3160" y="-1330" font-size="22" fill="grey" dy="0em">16000</text>
<path d="M3410,-20 L3410,-1320" stroke="grey" stroke-width="1" fill="none" />
<text x="3360" y="-1330" font-size="22" fill="grey" dy="0em">17000</text>
<path d="M3610,-20 L3610,-1320" stroke="grey" stroke-width="1" fill="none" />
<text x="3560" y="-1330" font-size="22" fill="grey" dy="0em">18000</text>
<path d="M3810,-20 L3810,-1320" stroke="grey" stroke-width="1" fill="none" />
<text x="3760" y="-1330" font-size="22" fill="grey" dy="0em">19000</text>
<text x="16.0" y="-1260" font-size="38" fill="black" dy="0em">II-C: contig_1@33 (1876713-1881951)</text>
<path d="M24.200000000000003,-1200 L145.20000000000002,-1200 L175.20000000000002,-1175.0 L145.20000000000002,-1150 L24.200000000000003,-1150 L24.200000000000003,-1200 Z" fill="#d3c9c1" fill-opacity="0.8" stroke="#d3c9c1" stroke-width="4" />
<text x="24.200000000000003" y="-1210" font-size="20" fill="black" dy="0em">1636</text>
<path d="M177.8,-1200 L295.8,-1200 L325.8,-1175.0 L295.8,-1150 L177.8,-1150 L177.8,-1200 Z" fill="#ff80e6" fill-opacity="0.3" stroke="#ff80e6" stroke-width="4" />
<text x="177.8" y="-1120" font-size="26" fill="black" dy="0em">(AbiEii)</text>
<path d="M395.40000000000003,-1200 L448.0,-1200 L478.0,-1175.0 L448.0,-1150 L395.40000000000003,-1150 L395.40000000000003,-1200 Z" fill="#d3c9c1" fill-opacity="0.8" stroke="#d3c9c1" stroke-width="4" />
<text x="395.40000000000003" y="-1210" font-size="20" fill="black" dy="0em">1638</text>
<path d="M478.0,-1200 L681.2,-1200 L711.2,-1175.0 L681.2,-1150 L478.0,-1150 L478.0,-1200 Z" fill="#d3c9c1" fill-opacity="0.3" stroke="#d3c9c1" stroke-width="4" />
<text x="478.0" y="-1120" font-size="26" fill="black" dy="0em">(TnpB)</text>
<path d="M736.4000000000001,-1200 L853.2,-1200 L883.2,-1175.0 L853.2,-1150 L736.4000000000001,-1150 L736.4000000000001,-1200 Z" fill="#d3c9c1" fill-opacity="0.8" stroke="#d3c9c1" stroke-width="4" />
<text x="736.4000000000001" y="-1210" font-size="20" fill="black" dy="0em">1640</text>
<path d="M896.6,-1200 L918.6,-1200 L948.6,-1175.0 L918.6,-1150 L896.6,-1150 L896.6,-1200 Z" fill="#d3c9c1" fill-opacity="0.8" stroke="#d3c9c1" stroke-width="4" />
<text x="896.6" y="-1120" font-size="20" fill="black" dy="0em">1641</text>
<path d="M1010.2,-1200 L1649.0,-1200 L1679.0,-1175.0 L1649.0,-1150 L1010.2,-1150 L1010.2,-1200 Z" fill="#efc050" fill-opacity="0.8" stroke="#efc050" stroke-width="4" />
<text x="1010.2" y="-1210" font-size="26" fill="black" dy="0em">Cas9</text>
<path d="M1834.2,-1200 L1872.4,-1200 L1872.4,-1150 L1834.2,-1150 L1804.2,-1175.0 L1834.2,-1200 Z" fill="#5b5ea6" fill-opacity="0.8" stroke="#5b5ea6" stroke-width="4" />
<text x="1804.2" y="-1120" font-size="26" fill="black" dy="0em">Cas2</text>
<path d="M1909.2,-1200 L2057.8,-1200 L2057.8,-1150 L1909.2,-1150 L1879.2,-1175.0 L1909.2,-1200 Z" fill="#5b5ea6" fill-opacity="0.8" stroke="#5b5ea6" stroke-width="4" />
<text x="1879.2" y="-1210" font-size="26" fill="black" dy="0em">Cas1</text>
<path d="M2089.0,-1200 L2132.6,-1200 L2132.6,-1150 L2089.0,-1150 L2059.0,-1175.0 L2089.0,-1200 Z" fill="#d3c9c1" fill-opacity="0.8" stroke="#d3c9c1" stroke-width="4" />
<text x="2059.0" y="-1120" font-size="20" fill="black" dy="0em">1645</text>
<path d="M2171.2000000000003,-1200 L2636.6000000000004,-1200 L2666.6000000000004,-1175.0 L2636.6000000000004,-1150 L2171.2000000000003,-1150 L2171.2000000000003,-1200 Z" fill="#d3c9c1" fill-opacity="0.8" stroke="#d3c9c1" stroke-width="4" />
<text x="2171.2000000000003" y="-1210" font-size="20" fill="black" dy="0em">1646</text>
<path d="M1681.0,-1200 L1793.8000000000002,-1200 L1793.8000000000002,-1150 L1681.0,-1150 L1681.0,-1200 Z" fill="white" stroke="white" stroke-width="4" />
<path d="M1681.0,-1200 L1687.6352941176472,-1200 L1687.6352941176472,-1150 L1681.0,-1150 L1681.0,-1200 Z" fill="black" />
<path d="M1687.6352941176472,-1200 L1694.2705882352943,-1200 L1694.2705882352943,-1150 L1687.6352941176472,-1150 L1687.6352941176472,-1200 Z" fill="#f0f0f0" />
<path d="M1694.2705882352943,-1200 L1700.9058823529415,-1200 L1700.9058823529415,-1150 L1694.2705882352943,-1150 L1694.2705882352943,-1200 Z" fill="black" />
<path d="M1700.9058823529415,-1200 L1707.5411764705887,-1200 L1707.5411764705887,-1150 L1700.9058823529415,-1150 L1700.9058823529415,-1200 Z" fill="#f0f0f0" />
<path d="M1707.5411764705887,-1200 L1714.1764705882358,-1200 L1714.1764705882358,-1150 L1707.5411764705887,-1150 L1707.5411764705887,-1200 Z" fill="black" />
<path d="M1714.1764705882358,-1200 L1720.811764705883,-1200 L1720.811764705883,-1150 L1714.1764705882358,-1150 L1714.1764705882358,-1200 Z" fill="#f0f0f0" />
<path d="M1720.811764705883,-1200 L1727.4470588235301,-1200 L1727.4470588235301,-1150 L1720.811764705883,-1150 L1720.811764705883,-1200 Z" fill="black" />
<path d="M1727.4470588235301,-1200 L1734.0823529411773,-1200 L1734.0823529411773,-1150 L1727.4470588235301,-1150 L1727.4470588235301,-1200 Z" fill="#f0f0f0" />
<path d="M1734.0823529411773,-1200 L1740.7176470588245,-1200 L1740.7176470588245,-1150 L1734.0823529411773,-1150 L1734.0823529411773,-1200 Z" fill="black" />
<path d="M1740.7176470588245,-1200 L1747.3529411764716,-1200 L1747.3529411764716,-1150 L1740.7176470588245,-1150 L1740.7176470588245,-1200 Z" fill="#f0f0f0" />
<path d="M1747.3529411764716,-1200 L1753.9882352941188,-1200 L1753.9882352941188,-1150 L1747.3529411764716,-1150 L1747.3529411764716,-1200 Z" fill="black" />
<path d="M1753.9882352941188,-1200 L1760.623529411766,-1200 L1760.623529411766,-1150 L1753.9882352941188,-1150 L1753.9882352941188,-1200 Z" fill="#f0f0f0" />
<path d="M1760.623529411766,-1200 L1767.2588235294131,-1200 L1767.2588235294131,-1150 L1760.623529411766,-1150 L1760.623529411766,-1200 Z" fill="black" />
<path d="M1767.2588235294131,-1200 L1773.8941176470603,-1200 L1773.8941176470603,-1150 L1767.2588235294131,-1150 L1767.2588235294131,-1200 Z" fill="#f0f0f0" />
<path d="M1773.8941176470603,-1200 L1780.5294117647074,-1200 L1780.5294117647074,-1150 L1773.8941176470603,-1150 L1773.8941176470603,-1200 Z" fill="black" />
<path d="M1780.5294117647074,-1200 L1787.1647058823546,-1200 L1787.1647058823546,-1150 L1780.5294117647074,-1150 L1780.5294117647074,-1200 Z" fill="#f0f0f0" />
<path d="M1787.1647058823546,-1200 L1793.8000000000018,-1200 L1793.8000000000018,-1150 L1787.1647058823546,-1150 L1787.1647058823546,-1200 Z" fill="black" />
<text x="1681.0" y="-1210" font-size="26" fill="black" dy="0em">CRISPR: II-C</text>
<text x="16.0" y="-1060" font-size="38" fill="black" dy="0em">I-F: contig_1@39 (2328483-2337712)</text>
<path d="M51.4,-1000 L161.6,-1000 L161.6,-950 L51.4,-950 L21.4,-975.0 L51.4,-1000 Z" fill="#d3c9c1" fill-opacity="0.8" stroke="#d3c9c1" stroke-width="4" />
<text x="21.4" y="-1010" font-size="20" fill="black" dy="0em">2034</text>
<path d="M178.60000000000002,-1000 L560.6,-1000 L590.6,-975.0 L560.6,-950 L178.60000000000002,-950 L178.60000000000002,-1000 Z" fill="#d3c9c1" fill-opacity="0.8" stroke="#d3c9c1" stroke-width="4" />
<text x="178.60000000000002" y="-920" font-size="20" fill="black" dy="0em">2035</text>
<path d="M648.6,-1000 L800.8000000000001,-1000 L830.8000000000001,-975.0 L800.8000000000001,-950 L648.6,-950 L648.6,-1000 Z" fill="#d3c9c1" fill-opacity="0.8" stroke="#d3c9c1" stroke-width="4" />
<text x="648.6" y="-1010" font-size="20" fill="black" dy="0em">2036</text>
<path d="M876.0,-1000 L1016.8000000000001,-1000 L1016.8000000000001,-950 L876.0,-950 L846.0,-975.0 L876.0,-1000 Z" fill="#d3c9c1" fill-opacity="0.8" stroke="#d3c9c1" stroke-width="4" />
<text x="846.0" y="-920" font-size="20" fill="black" dy="0em">2037</text>
<path d="M1040.2,-1000 L1550.0,-1000 L1550.0,-950 L1040.2,-950 L1010.2,-975.0 L1040.2,-1000 Z" fill="#009b77" fill-opacity="0.8" stroke="#009b77" stroke-width="4" />
<text x="1010.2" y="-1010" font-size="26" fill="black" dy="0em">Cas3-Cas2</text>
<path d="M1583.8000000000002,-1000 L1743.2,-1000 L1743.2,-950 L1583.8000000000002,-950 L1553.8000000000002,-975.0 L1583.8000000000002,-1000 Z" fill="#5b5ea6" fill-opacity="0.8" stroke="#5b5ea6" stroke-width="4" />
<text x="1553.8000000000002" y="-920" font-size="26" fill="black" dy="0em">Cas1</text>
<path d="M1750.2,-1000 L1744.0,-1000 L1774.0,-975.0 L1744.0,-950 L1750.2,-950 L1750.2,-1000 Z" fill="#d3c9c1" fill-opacity="0.8" stroke="#d3c9c1" stroke-width="4" />
<text x="1750.2" y="-1010" font-size="20" fill="black" dy="0em">2040</text>
<path d="M2118.4,-1000 L2208.2000000000003,-1000 L2208.2000000000003,-950 L2118.4,-950 L2088.4,-975.0 L2118.4,-1000 Z" fill="#dd1424" fill-opacity="0.8" stroke="#dd1424" stroke-width="4" />
<text x="2088.4" y="-920" font-size="26" fill="black" dy="0em">Cas6f</text>
<path d="M2244.6,-1000 L2440.0,-1000 L2440.0,-950 L2244.6,-950 L2214.6,-975.0 L2244.6,-1000 Z" fill="#efc050" fill-opacity="0.8" stroke="#efc050" stroke-width="4" />
<text x="2214.6" y="-1010" font-size="26" fill="black" dy="0em">Cas7f</text>
<path d="M2470.6,-1000 L2610.2000000000003,-1000 L2610.2000000000003,-950 L2470.6,-950 L2440.6,-975.0 L2470.6,-1000 Z" fill="#efc050" fill-opacity="0.8" stroke="#efc050" stroke-width="4" />
<text x="2440.6" y="-920" font-size="26" fill="black" dy="0em">Cas5f</text>
<path d="M2639.6000000000004,-1000 L2856.0,-1000 L2856.0,-950 L2639.6000000000004,-950 L2609.6000000000004,-975.0 L2639.6000000000004,-1000 Z" fill="#efc050" fill-opacity="0.8" stroke="#efc050" stroke-width="4" />
<text x="2609.6000000000004" y="-1010" font-size="26" fill="black" dy="0em">Cas8f</text>
<path d="M2934.8,-1000 L3085.2000000000003,-1000 L3085.2000000000003,-950 L2934.8,-950 L2904.8,-975.0 L2934.8,-1000 Z" fill="#d3c9c1" fill-opacity="0.8" stroke="#d3c9c1" stroke-width="4" />
<text x="2904.8" y="-920" font-size="20" fill="black" dy="0em">2045</text>
<path d="M3138.8,-1000 L3302.4,-1000 L3332.4,-975.0 L3302.4,-950 L3138.8,-950 L3138.8,-1000 Z" fill="#d3c9c1" fill-opacity="0.8" stroke="#d3c9c1" stroke-width="4" />
<text x="3138.8" y="-1010" font-size="20" fill="black" dy="0em">2046</text>
<path d="M3356.2000000000003,-1000 L3504.8,-1000 L3534.8,-975.0 L3504.8,-950 L3356.2000000000003,-950 L3356.2000000000003,-1000 Z" fill="#d3c9c1" fill-opacity="0.8" stroke="#d3c9c1" stroke-width="4" />
<text x="3356.2000000000003" y="-920" font-size="20" fill="black" dy="0em">2047</text>
<path d="M3586.4,-1000 L3715.8,-1000 L3715.8,-950 L3586.4,-950 L3556.4,-975.0 L3586.4,-1000 Z" fill="#d3c9c1" fill-opacity="0.8" stroke="#d3c9c1" stroke-width="4" />
<text x="3556.4" y="-1010" font-size="20" fill="black" dy="0em">2048</text>
<path d="M3750.2000000000003,-1000 L3850.8,-1000 L3850.8,-950 L3750.2000000000003,-950 L3720.2000000000003,-975.0 L3750.2000000000003,-1000 Z" fill="#d3c9c1" fill-opacity="0.8" stroke="#d3c9c1" stroke-width="4" />
<text x="3720.2000000000003" y="-920" font-size="20" fill="black" dy="0em">2049</text>
<path d="M1764.4,-1000 L2059.6,-1000 L2059.6,-950 L1764.4,-950 L1764.4,-1000 Z" fill="white" stroke="white" stroke-width="4" />
<path d="M1764.4,-1000 L1770.4244897959184,-1000 L1770.4244897959184,-950 L1764.4,-950 L1764.4,-1000 Z" fill="black" />
<path d="M1770.4244897959184,-1000 L1776.4489795918366,-1000 L1776.4489795918366,-950 L1770.4244897959184,-950 L1770.4244897959184,-1000 Z" fill="#f0f0f0" />
<path d="M1776.4489795918366,-1000 L1782.473469387755,-1000 L1782.473469387755,-950 L1776.4489795918366,-950 L1776.4489795918366,-1000 Z" fill="black" />
<path d="M1782.473469387755,-1000 L1788.4979591836732,-1000 L1788.4979591836732,-950 L1782.473469387755,-950 L1782.473469387755,-1000 Z" fill="#f0f0f0" />
<path d="M1788.4979591836732,-1000 L1794.5224489795914,-1000 L1794.5224489795914,-950 L1788.4979591836732,-950 L1788.4979591836732,-1000 Z" fill="black" />
<path d="M1794.5224489795914,-1000 L1800.5469387755097,-1000 L1800.5469387755097,-950 L1794.5224489795914,-950 L1794.5224489795914,-1000 Z" fill="#f0f0f0" />
<path d="M1800.5469387755097,-1000 L1806.571428571428,-1000 L1806.571428571428,-950 L1800.5469387755097,-950 L1800.5469387755097,-1000 Z" fill="black" />
<path d="M1806.571428571428,-1000 L1812.5959183673463,-1000 L1812.5959183673463,-950 L1806.571428571428,-950 L1806.571428571428,-1000 Z" fill="#f0f0f0" />
<path d="M1812.5959183673463,-1000 L1818.6204081632645,-1000 L1818.6204081632645,-950 L1812.5959183673463,-950 L1812.5959183673463,-1000 Z" fill="black" />
<path d="M1818.6204081632645,-1000 L1824.6448979591828,-1000 L1824.6448979591828,-950 L1818.6204081632645,-950 L1818.6204081632645,-1000 Z" fill="#f0f0f0" />
<path d="M1824.6448979591828,-1000 L1830.669387755101,-1000 L1830.669387755101,-950 L1824.6448979591828,-950 L1824.6448979591828,-1000 Z" fill="black" />
<path d="M1830.669387755101,-1000 L1836.6938775510193,-1000 L1836.6938775510193,-950 L1830.669387755101,-950 L1830.669387755101,-1000 Z" fill="#f0f0f0" />
<path d="M1836.6938775510193,-1000 L1842.7183673469376,-1000 L1842.7183673469376,-950 L1836.6938775510193,-950 L1836.6938775510193,-1000 Z" fill="black" />
<path d="M1842.7183673469376,-1000 L1848.7428571428559,-1000 L1848.7428571428559,-950 L1842.7183673469376,-950 L1842.7183673469376,-1000 Z" fill="#f0f0f0" />
<path d="M1848.7428571428559,-1000 L1854.7673469387742,-1000 L1854.7673469387742,-950 L1848.7428571428559,-950 L1848.7428571428559,-1000 Z" fill="black" />
<path d="M1854.7673469387742,-1000 L1860.7918367346924,-1000 L1860.7918367346924,-950 L1854.7673469387742,-950 L1854.7673469387742,-1000 Z" fill="#f0f0f0" />
<path d="M1860.7918367346924,-1000 L1866.8163265306107,-1000 L1866.8163265306107,-950 L1860.7918367346924,-950 L1860.7918367346924,-1000 Z" fill="black" />
<path d="M1866.8163265306107,-1000 L1872.840816326529,-1000 L1872.840816326529,-950 L1866.8163265306107,-950 L1866.8163265306107,-1000 Z" fill="#f0f0f0" />
<path d="M1872.840816326529,-1000 L1878.8653061224472,-1000 L1878.8653061224472,-950 L1872.840816326529,-950 L1872.840816326529,-1000 Z" fill="black" />
<path d="M1878.8653061224472,-1000 L1884.8897959183655,-1000 L1884.8897959183655,-950 L1878.8653061224472,-950 L1878.8653061224472,-1000 Z" fill="#f0f0f0" />
<path d="M1884.8897959183655,-1000 L1890.9142857142838,-1000 L1890.9142857142838,-950 L1884.8897959183655,-950 L1884.8897959183655,-1000 Z" fill="black" />
<path d="M1890.9142857142838,-1000 L1896.938775510202,-1000 L1896.938775510202,-950 L1890.9142857142838,-950 L1890.9142857142838,-1000 Z" fill="#f0f0f0" />
<path d="M1896.938775510202,-1000 L1902.9632653061203,-1000 L1902.9632653061203,-950 L1896.938775510202,-950 L1896.938775510202,-1000 Z" fill="black" />
<path d="M1902.9632653061203,-1000 L1908.9877551020386,-1000 L1908.9877551020386,-950 L1902.9632653061203,-950 L1902.9632653061203,-1000 Z" fill="#f0f0f0" />
<path d="M1908.9877551020386,-1000 L1915.0122448979569,-1000 L1915.0122448979569,-950 L1908.9877551020386,-950 L1908.9877551020386,-1000 Z" fill="black" />
<path d="M1915.0122448979569,-1000 L1921.0367346938751,-1000 L1921.0367346938751,-950 L1915.0122448979569,-950 L1915.0122448979569,-1000 Z" fill="#f0f0f0" />
<path d="M1921.0367346938751,-1000 L1927.0612244897934,-1000 L1927.0612244897934,-950 L1921.0367346938751,-950 L1921.0367346938751,-1000 Z" fill="black" />
<path d="M1927.0612244897934,-1000 L1933.0857142857117,-1000 L1933.0857142857117,-950 L1927.0612244897934,-950 L1927.0612244897934,-1000 Z" fill="#f0f0f0" />
<path d="M1933.0857142857117,-1000 L1939.11020408163,-1000 L1939.11020408163,-950 L1933.0857142857117,-950 L1933.0857142857117,-1000 Z" fill="black" />
<path d="M1939.11020408163,-1000 L1945.1346938775482,-1000 L1945.1346938775482,-950 L1939.11020408163,-950 L1939.11020408163,-1000 Z" fill="#f0f0f0" />
<path d="M1945.1346938775482,-1000 L1951.1591836734665,-1000 L1951.1591836734665,-950 L1945.1346938775482,-950 L1945.1346938775482,-1000 Z" fill="black" />
<path d="M1951.1591836734665,-1000 L1957.1836734693848,-1000 L1957.1836734693848,-950 L1951.1591836734665,-950 L1951.1591836734665,-1000 Z" fill="#f0f0f0" />
<path d="M1957.1836734693848,-1000 L1963.208163265303,-1000 L1963.208163265303,-950 L1957.1836734693848,-950 L1957.1836734693848,-1000 Z" fill="black" />
<path d="M1963.208163265303,-1000 L1969.2326530612213,-1000 L1969.2326530612213,-950 L1963.208163265303,-950 L1963.208163265303,-1000 Z" fill="#f0f0f0" />
<path d="M1969.2326530612213,-1000 L1975.2571428571396,-1000 L1975.2571428571396,-950 L1969.2326530612213,-950 L1969.2326530612213,-1000 Z" fill="black" />
<path d="M1975.2571428571396,-1000 L1981.2816326530578,-1000 L1981.2816326530578,-950 L1975.2571428571396,-950 L1975.2571428571396,-1000 Z" fill="#f0f0f0" />
<path d="M1981.2816326530578,-1000 L1987.306122448976,-1000 L1987.306122448976,-950 L1981.2816326530578,-950 L1981.2816326530578,-1000 Z" fill="black" />
<path d="M1987.306122448976,-1000 L1993.3306122448944,-1000 L1993.3306122448944,-950 L1987.306122448976,-950 L1987.306122448976,-1000 Z" fill="#f0f0f0" />
<path d="M1993.3306122448944,-1000 L1999.3551020408127,-1000 L1999.3551020408127,-950 L1993.3306122448944,-950 L1993.3306122448944,-1000 Z" fill="black" />
<path d="M1999.3551020408127,-1000 L2005.379591836731,-1000 L2005.379591836731,-950 L1999.3551020408127,-950 L1999.3551020408127,-1000 Z" fill="#f0f0f0" />
<path d="M2005.379591836731,-1000 L2011.4040816326492,-1000 L2011.4040816326492,-950 L2005.379591836731,-950 L2005.379591836731,-1000 Z" fill="black" />
<path d="M2011.4040816326492,-1000 L2017.4285714285675,-1000 L2017.4285714285675,-950 L2011.4040816326492,-950 L2011.4040816326492,-1000 Z" fill="#f0f0f0" />
<path d="M2017.4285714285675,-1000 L2023.4530612244857,-1000 L2023.4530612244857,-950 L2017.4285714285675,-950 L2017.4285714285675,-1000 Z" fill="black" />
<path d="M2023.4530612244857,-1000 L2029.477551020404,-1000 L2029.477551020404,-950 L2023.4530612244857,-950 L2023.4530612244857,-1000 Z" fill="#f0f0f0" />
<path d="M2029.477551020404,-1000 L2035.5020408163223,-1000 L2035.5020408163223,-950 L2029.477551020404,-950 L2029.477551020404,-1000 Z" fill="black" />
<path d="M2035.5020408163223,-1000 L2041.5265306122405,-1000 L2041.5265306122405,-950 L2035.5020408163223,-950 L2035.5020408163223,-1000 Z" fill="#f0f0f0" />
<path d="M2041.5265306122405,-1000 L2047.5510204081588,-1000 L2047.5510204081588,-950 L2041.5265306122405,-950 L2041.5265306122405,-1000 Z" fill="black" />
<path d="M2047.5510204081588,-1000 L2053.575510204077,-1000 L2053.575510204077,-950 L2047.5510204081588,-950 L2047.5510204081588,-1000 Z" fill="#f0f0f0" />
<path d="M2053.575510204077,-1000 L2059.5999999999954,-1000 L2059.5999999999954,-950 L2053.575510204077,-950 L2053.575510204077,-1000 Z" fill="black" />
<text x="1764.4" y="-1010" font-size="26" fill="black" dy="0em">CRISPR: I-F</text>
<text x="16.0" y="-860" font-size="38" fill="black" dy="0em">II-D: contig_1@47 (2789610-2790896)</text>
<path d="M178.4,-800 L299.40000000000003,-800 L329.40000000000003,-775.0 L299.40000000000003,-750 L178.4,-750 L178.4,-800 Z" fill="#d3c9c1" fill-opacity="0.8" stroke="#d3c9c1" stroke-width="4" />
<text x="178.4" y="-810" font-size="20" fill="black" dy="0em">2480</text>
<path d="M338.8,-800 L779.6,-800 L809.6,-775.0 L779.6,-750 L338.8,-750 L338.8,-800 Z" fill="#d3c9c1" fill-opacity="0.8" stroke="#d3c9c1" stroke-width="4" />
<text x="338.8" y="-720" font-size="20" fill="black" dy="0em">2481</text>
<path d="M814.4000000000001,-800 L918.6,-800 L948.6,-775.0 L918.6,-750 L814.4000000000001,-750 L814.4000000000001,-800 Z" fill="#d3c9c1" fill-opacity="0.8" stroke="#d3c9c1" stroke-width="4" />
<text x="814.4000000000001" y="-810" font-size="20" fill="black" dy="0em">2482</text>
<path d="M1010.2,-800 L1237.4,-800 L1267.4,-775.0 L1237.4,-750 L1010.2,-750 L1010.2,-800 Z" fill="#efc050" fill-opacity="0.8" stroke="#efc050" stroke-width="4" />
<text x="1010.2" y="-720" font-size="26" fill="black" dy="0em">Cas9</text>
<path d="M1300.4,-800 L1471.2,-800 L1501.2,-775.0 L1471.2,-750 L1300.4,-750 L1300.4,-800 Z" fill="#d3c9c1" fill-opacity="0.8" stroke="#d3c9c1" stroke-width="4" />
<text x="1300.4" y="-810" font-size="20" fill="black" dy="0em">2484</text>
<path d="M1502.0,-800 L1738.8000000000002,-800 L1768.8000000000002,-775.0 L1738.8000000000002,-750 L1502.0,-750 L1502.0,-800 Z" fill="#d3c9c1" fill-opacity="0.8" stroke="#d3c9c1" stroke-width="4" />
<text x="1502.0" y="-720" font-size="20" fill="black" dy="0em">2485</text>
<path d="M1788.4,-800 L1952.0,-800 L1982.0,-775.0 L1952.0,-750 L1788.4,-750 L1788.4,-800 Z" fill="#d3c9c1" fill-opacity="0.8" stroke="#d3c9c1" stroke-width="4" />
<text x="1788.4" y="-810" font-size="20" fill="black" dy="0em">2486</text>
<path d="M1984.0,-800 L2107.4,-800 L2137.4,-775.0 L2107.4,-750 L1984.0,-750 L1984.0,-800 Z" fill="#d3c9c1" fill-opacity="0.8" stroke="#d3c9c1" stroke-width="4" />
<text x="1984.0" y="-720" font-size="20" fill="black" dy="0em">2487</text>
<text x="16.0" y="-660" font-size="38" fill="black" dy="0em">II-D: contig_1@20 (1235901-1237187)</text>
<path d="M88.80000000000001,-600 L382.6,-600 L412.6,-575.0 L382.6,-550 L88.80000000000001,-550 L88.80000000000001,-600 Z" fill="#d3c9c1" fill-opacity="0.8" stroke="#d3c9c1" stroke-width="4" />
<text x="88.80000000000001" y="-610" font-size="20" fill="black" dy="0em">1066</text>
<path d="M442.0,-600 L597.2,-600 L597.2,-550 L442.0,-550 L412.0,-575.0 L442.0,-600 Z" fill="#d3c9c1" fill-opacity="0.8" stroke="#d3c9c1" stroke-width="4" />
<text x="412.0" y="-520" font-size="20" fill="black" dy="0em">1067</text>
<path d="M650.6,-600 L778.8000000000001,-600 L778.8000000000001,-550 L650.6,-550 L620.6,-575.0 L650.6,-600 Z" fill="#d3c9c1" fill-opacity="0.8" stroke="#d3c9c1" stroke-width="4" />
<text x="620.6" y="-610" font-size="20" fill="black" dy="0em">1068</text>
<path d="M840.0,-600 L977.2,-600 L977.2,-550 L840.0,-550 L810.0,-575.0 L840.0,-600 Z" fill="#d3c9c1" fill-opacity="0.8" stroke="#d3c9c1" stroke-width="4" />
<text x="810.0" y="-520" font-size="20" fill="black" dy="0em">1069</text>
<path d="M1040.2,-600 L1267.4,-600 L1267.4,-550 L1040.2,-550 L1010.2,-575.0 L1040.2,-600 Z" fill="#efc050" fill-opacity="0.8" stroke="#efc050" stroke-width="4" />
<text x="1010.2" y="-610" font-size="26" fill="black" dy="0em">Cas9</text>
<path d="M1354.8000000000002,-600 L1463.2,-600 L1463.2,-550 L1354.8000000000002,-550 L1324.8000000000002,-575.0 L1354.8000000000002,-600 Z" fill="#d3c9c1" fill-opacity="0.8" stroke="#d3c9c1" stroke-width="4" />
<text x="1324.8000000000002" y="-520" font-size="20" fill="black" dy="0em">1071</text>
<path d="M1497.2,-600 L1553.4,-600 L1553.4,-550 L1497.2,-550 L1467.2,-575.0 L1497.2,-600 Z" fill="#d3c9c1" fill-opacity="0.8" stroke="#d3c9c1" stroke-width="4" />
<text x="1467.2" y="-610" font-size="20" fill="black" dy="0em">1072</text>
<path d="M1587.2,-600 L1965.0,-600 L1965.0,-550 L1587.2,-550 L1557.2,-575.0 L1587.2,-600 Z" fill="#d3c9c1" fill-opacity="0.8" stroke="#d3c9c1" stroke-width="4" />
<text x="1557.2" y="-520" font-size="20" fill="black" dy="0em">1073</text>
<text x="16.0" y="-460" font-size="38" fill="black" dy="0em">II-D: contig_1@11 (644453-645757)</text>
<path d="M202.8,-400 L224.20000000000002,-400 L254.20000000000002,-375.0 L224.20000000000002,-350 L202.8,-350 L202.8,-400 Z" fill="#d3c9c1" fill-opacity="0.8" stroke="#d3c9c1" stroke-width="4" />
<text x="202.8" y="-410" font-size="20" fill="black" dy="0em">544</text>
<path d="M285.0,-400 L485.8,-400 L485.8,-350 L285.0,-350 L255.0,-375.0 L285.0,-400 Z" fill="#d3c9c1" fill-opacity="0.8" stroke="#d3c9c1" stroke-width="4" />
<text x="255.0" y="-320" font-size="20" fill="black" dy="0em">545</text>
<path d="M529.2,-400 L549.4,-400 L579.4,-375.0 L549.4,-350 L529.2,-350 L529.2,-400 Z" fill="#d3c9c1" fill-opacity="0.8" stroke="#d3c9c1" stroke-width="4" />
<text x="529.2" y="-410" font-size="20" fill="black" dy="0em">546</text>
<path d="M604.2,-400 L665.2,-400 L695.2,-375.0 L665.2,-350 L604.2,-350 L604.2,-400 Z" fill="#d3c9c1" fill-opacity="0.8" stroke="#d3c9c1" stroke-width="4" />
<text x="604.2" y="-320" font-size="20" fill="black" dy="0em">547</text>
<path d="M694.6,-400 L921.8000000000001,-400 L951.8000000000001,-375.0 L921.8000000000001,-350 L694.6,-350 L694.6,-400 Z" fill="#d3c9c1" fill-opacity="0.8" stroke="#d3c9c1" stroke-width="4" />
<text x="694.6" y="-410" font-size="20" fill="black" dy="0em">548</text>
<path d="M1010.2,-400 L1241.0,-400 L1271.0,-375.0 L1241.0,-350 L1010.2,-350 L1010.2,-400 Z" fill="#efc050" fill-opacity="0.8" stroke="#efc050" stroke-width="4" />
<text x="1010.2" y="-320" font-size="26" fill="black" dy="0em">Cas9</text>
<path d="M1300.8000000000002,-400 L1368.4,-400 L1398.4,-375.0 L1368.4,-350 L1300.8000000000002,-350 L1300.8000000000002,-400 Z" fill="#d3c9c1" fill-opacity="0.8" stroke="#d3c9c1" stroke-width="4" />
<text x="1300.8000000000002" y="-410" font-size="20" fill="black" dy="0em">550</text>
<path d="M1406.6000000000001,-400 L1507.8000000000002,-400 L1537.8000000000002,-375.0 L1507.8000000000002,-350 L1406.6000000000001,-350 L1406.6000000000001,-400 Z" fill="#d3c9c1" fill-opacity="0.8" stroke="#d3c9c1" stroke-width="4" />
<text x="1406.6000000000001" y="-320" font-size="20" fill="black" dy="0em">551</text>
<path d="M1544.8000000000002,-400 L1842.2,-400 L1872.2,-375.0 L1842.2,-350 L1544.8000000000002,-350 L1544.8000000000002,-400 Z" fill="#d3c9c1" fill-opacity="0.8" stroke="#d3c9c1" stroke-width="4" />
<text x="1544.8000000000002" y="-410" font-size="20" fill="black" dy="0em">552</text>
<path d="M1929.4,-400 L2007.2,-400 L2007.2,-350 L1929.4,-350 L1899.4,-375.0 L1929.4,-400 Z" fill="#d3c9c1" fill-opacity="0.8" stroke="#d3c9c1" stroke-width="4" />
<text x="1899.4" y="-320" font-size="20" fill="black" dy="0em">553</text>
<path d="M2038.6000000000001,-400 L2118.2000000000003,-400 L2118.2000000000003,-350 L2038.6000000000001,-350 L2008.6000000000001,-375.0 L2038.6000000000001,-400 Z" fill="#d3c9c1" fill-opacity="0.8" stroke="#d3c9c1" stroke-width="4" />
<text x="2008.6000000000001" y="-410" font-size="20" fill="black" dy="0em">554</text>
<text x="16.0" y="-260" font-size="38" fill="black" dy="0em">II-D: contig_1@32 (1808671-1809957)</text>
<path d="M306.2,-200 L432.6,-200 L462.6,-175.0 L432.6,-150 L306.2,-150 L306.2,-200 Z" fill="#d3c9c1" fill-opacity="0.8" stroke="#d3c9c1" stroke-width="4" />
<text x="306.2" y="-210" font-size="20" fill="black" dy="0em">1576</text>
<path d="M466.40000000000003,-200 L794.4000000000001,-200 L824.4000000000001,-175.0 L794.4000000000001,-150 L466.40000000000003,-150 L466.40000000000003,-200 Z" fill="#d3c9c1" fill-opacity="0.8" stroke="#d3c9c1" stroke-width="4" />
<text x="466.40000000000003" y="-120" font-size="20" fill="black" dy="0em">1577</text>
<path d="M826.8000000000001,-200 L930.4000000000001,-200 L960.4000000000001,-175.0 L930.4000000000001,-150 L826.8000000000001,-150 L826.8000000000001,-200 Z" fill="#d3c9c1" fill-opacity="0.8" stroke="#d3c9c1" stroke-width="4" />
<text x="826.8000000000001" y="-210" font-size="20" fill="black" dy="0em">1578</text>
<path d="M1010.2,-200 L1237.4,-200 L1267.4,-175.0 L1237.4,-150 L1010.2,-150 L1010.2,-200 Z" fill="#efc050" fill-opacity="0.8" stroke="#efc050" stroke-width="4" />
<text x="1010.2" y="-120" font-size="26" fill="black" dy="0em">Cas9</text>
<path d="M1300.4,-200 L1450.8000000000002,-200 L1480.8000000000002,-175.0 L1450.8000000000002,-150 L1300.4,-150 L1300.4,-200 Z" fill="#d3c9c1" fill-opacity="0.8" stroke="#d3c9c1" stroke-width="4" />
<text x="1300.4" y="-210" font-size="20" fill="black" dy="0em">1580</text>
<path d="M1485.6000000000001,-200 L1672.0,-200 L1702.0,-175.0 L1672.0,-150 L1485.6000000000001,-150 L1485.6000000000001,-200 Z" fill="#d3c9c1" fill-opacity="0.8" stroke="#d3c9c1" stroke-width="4" />
<text x="1485.6000000000001" y="-120" font-size="20" fill="black" dy="0em">1581</text>
<path d="M1705.2,-200 L2116.0,-200 L2146.0,-175.0 L2116.0,-150 L1705.2,-150 L1705.2,-200 Z" fill="#d3c9c1" fill-opacity="0.8" stroke="#d3c9c1" stroke-width="4" />
<text x="1705.2" y="-210" font-size="20" fill="black" dy="0em">1582</text>
<path d="M2175.4,-200 L2197.4,-200 L2197.4,-150 L2175.4,-150 L2145.4,-175.0 L2175.4,-200 Z" fill="#d3c9c1" fill-opacity="0.8" stroke="#d3c9c1" stroke-width="4" />
<text x="2145.4" y="-120" font-size="20" fill="black" dy="0em">1583</text>
</svg>